<svg width="1366" height="696" viewBox="0 0 1366 696" fill="none" xmlns="http://www.w3.org/2000/svg">
<g opacity="0.63" filter="url(#filter0_d_1_26276)">
<rect width="1366" height="690" fill="#D5D5D5"/>
</g>
<g opacity="0.51">
<path d="M1171.79 609.302L1187.93 579.16L1187.63 554.728L1186.75 531.277L1173.94 522.039L1180.7 508.843L1187.48 531.072L1188.36 554.71L1188.66 579.339L1188.62 579.422L1173.47 607.702L1197.59 596.353L1220.03 588.674L1235.71 576.851L1266.38 562.403L1276.44 551.339L1292.46 557.46L1287.86 572.167L1274.41 575.531L1266.46 563.17L1236.06 577.496L1220.32 589.346L1197.87 597.029L1171.79 609.302ZM1267.06 562.741L1274.74 574.695L1287.29 571.557L1291.56 557.897L1276.65 552.199L1267.06 562.741ZM1174.87 521.813L1186.45 530.156L1180.52 510.78L1174.87 521.813Z" fill="#7E7E7E"/>
<path d="M1170.41 607.685C1168.06 607.685 1168.34 611.327 1170.68 611.327C1173.03 611.327 1172.75 607.685 1170.41 607.685Z" fill="#7E7E7E"/>
<path d="M1187.74 576.692C1185.39 576.692 1185.68 580.334 1188.02 580.334C1190.37 580.334 1190.08 576.692 1187.74 576.692Z" fill="#7E7E7E"/>
<path d="M1266.6 561.787C1264.25 561.787 1264.54 565.429 1266.88 565.429C1269.23 565.429 1268.94 561.787 1266.6 561.787Z" fill="#7E7E7E"/>
<path d="M1220.31 588.249C1217.96 588.249 1218.25 591.891 1220.59 591.891C1222.94 591.891 1222.65 588.249 1220.31 588.249Z" fill="#7E7E7E"/>
<path d="M1235.41 575.641C1233.06 575.641 1233.35 579.283 1235.69 579.283C1238.04 579.283 1237.75 575.641 1235.41 575.641Z" fill="#7E7E7E"/>
<path d="M1197.33 595.209C1194.98 595.209 1195.26 598.852 1197.6 598.852C1199.95 598.852 1199.67 595.209 1197.33 595.209Z" fill="#7E7E7E"/>
<path d="M1174.81 520.616C1172.46 520.616 1172.74 524.258 1175.08 524.258C1177.43 524.258 1177.15 520.616 1174.81 520.616Z" fill="#7E7E7E"/>
<path d="M1291.23 556.468C1288.88 556.468 1289.16 560.11 1291.5 560.11C1293.85 560.11 1293.57 556.468 1291.23 556.468Z" fill="#7E7E7E"/>
<path d="M180.977 511.882L197.113 481.739L196.819 457.307L195.94 433.856L183.124 424.618L189.883 411.422L196.664 433.652L197.549 457.289L197.847 481.918L197.802 482.001L182.661 510.281L206.78 498.932L229.219 491.253L244.897 479.43L275.562 464.982L285.629 453.918L301.645 460.039L297.05 474.746L283.596 478.11L275.648 465.749L245.242 480.075L229.511 491.925L207.053 499.608L180.977 511.882ZM276.242 465.32L283.927 477.274L296.475 474.137L300.744 460.477L285.833 454.779L276.242 465.32ZM184.06 424.392L195.632 432.735L189.711 413.359L184.06 424.392Z" fill="#7E7E7E"/>
<path d="M179.594 510.264C177.242 510.264 177.529 513.906 179.868 513.906C182.22 513.906 181.933 510.264 179.594 510.264Z" fill="#7E7E7E"/>
<path d="M196.929 479.271C194.578 479.271 194.863 482.913 197.204 482.913C199.555 482.913 199.268 479.271 196.929 479.271Z" fill="#7E7E7E"/>
<path d="M275.79 464.366C273.439 464.366 273.725 468.008 276.065 468.008C278.416 468.008 278.129 464.366 275.79 464.366Z" fill="#7E7E7E"/>
<path d="M229.497 490.828C227.146 490.828 227.432 494.47 229.772 494.47C232.123 494.47 231.836 490.828 229.497 490.828Z" fill="#7E7E7E"/>
<path d="M244.6 478.22C242.248 478.22 242.535 481.862 244.874 481.862C247.226 481.862 246.94 478.22 244.6 478.22Z" fill="#7E7E7E"/>
<path d="M206.516 497.789C204.164 497.789 204.451 501.431 206.791 501.431C209.141 501.431 208.856 497.789 206.516 497.789Z" fill="#7E7E7E"/>
<path d="M183.993 423.195C181.642 423.195 181.929 426.838 184.268 426.838C186.619 426.838 186.332 423.195 183.993 423.195Z" fill="#7E7E7E"/>
<path d="M300.414 459.047C298.063 459.047 298.349 462.69 300.689 462.69C303.041 462.69 302.754 459.047 300.414 459.047Z" fill="#7E7E7E"/>
<path d="M425.911 95.5959L416.967 77.7065L417.045 77.5445L429.93 50.8755L459.182 69.6795L491.329 77.3483L491.159 78.0589L458.891 70.3615L430.229 51.9356L417.78 77.7008L426.565 95.2692L425.911 95.5959Z" fill="#7E7E7E"/>
<path d="M373.066 107.444L372.444 107.06L384.772 87.1009L381.603 75.2923L365.977 67.0185L410.631 49.2175L417.451 54.259L429.988 51.0516L430.169 51.7593L417.296 55.0523L410.524 50.0465L367.714 67.1127L382.227 74.7958L385.56 87.2165L373.066 107.444Z" fill="#7E7E7E"/>
<path d="M429.692 49.7012C427.34 49.7012 427.626 53.3434 429.966 53.3434C432.318 53.3434 432.031 49.7012 429.692 49.7012Z" fill="#7E7E7E"/>
<path d="M458.255 68.4158C455.904 68.4158 456.19 72.058 458.529 72.058C460.881 72.058 460.594 68.4158 458.255 68.4158Z" fill="#7E7E7E"/>
<path d="M416.887 75.5066C414.537 75.5066 414.823 79.1488 417.163 79.1488C419.513 79.1488 419.227 75.5066 416.887 75.5066Z" fill="#7E7E7E"/>
<path d="M381.823 72.946C379.472 72.946 379.759 76.5882 382.098 76.5882C384.449 76.5882 384.164 72.946 381.823 72.946Z" fill="#7E7E7E"/>
<path d="M384.778 85.7502C382.427 85.7502 382.714 89.3925 385.053 89.3925C387.404 89.3925 387.119 85.7502 384.778 85.7502Z" fill="#7E7E7E"/>
<path d="M417.872 53.4441C415.521 53.4441 415.807 57.0863 418.147 57.0863C420.498 57.0863 420.212 53.4441 417.872 53.4441Z" fill="#7E7E7E"/>
<path d="M413.282 47.3858L412.256 49.1121L414.078 49.9566L412.132 50.452L412.823 52.3374L411.097 51.3117L410.252 53.1336L409.757 51.1876L407.871 51.8787L408.897 50.1523L407.075 49.3078L409.021 48.8124L408.33 46.927L410.056 47.9527L410.901 46.1309L411.396 48.0769L413.282 47.3858Z" fill="#7E7E7E"/>
<path d="M432.587 97.4211L428.79 97.5659L429.321 101.328L426.533 98.7459L424.248 101.782L424.104 97.9848L420.341 98.5158L422.924 95.7285L419.888 93.4435L423.685 93.2986L423.154 89.5362L425.941 92.1186L428.226 89.0828L428.371 92.8797L432.133 92.3488L429.551 95.1361L432.587 97.4211Z" fill="#7E7E7E"/>
<path d="M494.048 79.1492L492.263 78.9077L492.204 80.7082L491.113 79.2751L489.798 80.5069L490.04 78.7217L488.239 78.6633L489.672 77.5717L488.441 76.2572L490.226 76.4988L490.284 74.6982L491.376 76.1314L492.69 74.8995L492.449 76.6848L494.249 76.7432L492.816 77.8347L494.048 79.1492Z" fill="#7E7E7E"/>
<path d="M363.05 65.1147L365.28 64.9184L364.858 62.7194L366.574 64.1579L367.83 62.3042L368.026 64.5348L370.225 64.1123L368.787 65.8284L370.641 67.0846L368.41 67.2808L368.833 69.4799L367.116 68.0414L365.86 69.8951L365.664 67.6644L363.465 68.0869L364.904 66.3709L363.05 65.1147Z" fill="#7E7E7E"/>
<path d="M377.627 108.846L374.7 108.92L375.072 111.824L372.95 109.807L371.16 112.124L371.086 109.197L368.182 109.569L370.199 107.447L367.883 105.657L370.809 105.583L370.438 102.679L372.559 104.696L374.35 102.379L374.424 105.306L377.328 104.934L375.311 107.056L377.627 108.846Z" fill="#7E7E7E"/>
<path d="M1359.01 410.723L1377.07 419.313L1377.11 419.488L1383.37 448.437L1348.75 451.628L1318.69 465.377L1318.39 464.713L1348.55 450.912L1382.48 447.785L1376.43 419.818L1358.69 411.382L1359.01 410.723Z" fill="#7E7E7E"/>
<path d="M1393.35 368.852L1394.08 368.771L1396.65 392.089L1406.42 399.443L1423.83 396.342L1399.6 437.861L1391.12 438.088L1383.22 448.334L1382.64 447.888L1390.76 437.367L1399.18 437.142L1422.4 397.338L1406.24 400.218L1395.96 392.483L1393.35 368.852Z" fill="#7E7E7E"/>
<path d="M1350.25 452.053C1352.11 450.605 1349.64 447.912 1347.79 449.352C1345.94 450.8 1348.41 453.493 1350.25 452.053Z" fill="#7E7E7E"/>
<path d="M1352.62 413.394L1355.53 410.942L1352.79 408.304L1356.58 408.623L1356.51 404.824L1358.96 407.727L1361.6 404.992L1361.28 408.779L1365.08 408.71L1362.18 411.162L1364.91 413.8L1361.12 413.481L1361.19 417.28L1358.74 414.377L1356.1 417.112L1356.42 413.326L1352.62 413.394Z" fill="#7E7E7E"/>
<path d="M1315.44 465.632L1317 464.723L1315.93 463.268L1317.68 463.725L1317.95 461.945L1318.86 463.501L1320.32 462.438L1319.86 464.181L1321.64 464.458L1320.08 465.367L1321.15 466.822L1319.4 466.365L1319.13 468.145L1318.22 466.589L1316.76 467.652L1317.22 465.909L1315.44 465.632Z" fill="#7E7E7E"/>
<path d="M1256.2 91.7734L1225.84 70.2113L1206.17 40.5489L1217.34 42.4652L1251.79 45.9979L1294.64 26.6853L1265.43 81.1822L1256.2 91.7734ZM1226.41 69.7508L1256.08 90.7948L1264.85 80.7339L1292.98 28.2341L1251.91 46.744L1217.25 43.1882L1207.71 41.5552L1226.41 69.7508Z" fill="#7E7E7E"/>
<rect x="1299.8" y="16.4351" width="14.2597" height="1" transform="rotate(-55.9992 1299.8 16.4351)" fill="#7E7E7E"/>
<path d="M1256.13 89.3181C1253.78 89.3181 1254.06 92.9603 1256.4 92.9603C1258.75 92.9603 1258.47 89.3181 1256.13 89.3181Z" fill="#7E7E7E"/>
<path d="M1265.58 79.0745C1263.23 79.0745 1263.52 82.7167 1265.86 82.7167C1268.21 82.7167 1267.92 79.0745 1265.58 79.0745Z" fill="#7E7E7E"/>
<path d="M1251.14 45.1919C1248.79 45.1919 1249.07 48.8341 1251.41 48.8341C1253.77 48.8341 1253.48 45.1919 1251.14 45.1919Z" fill="#7E7E7E"/>
<path d="M1206.49 39.4143C1204.14 39.4143 1204.42 43.0565 1206.76 43.0565C1209.11 43.0565 1208.83 39.4143 1206.49 39.4143Z" fill="#7E7E7E"/>
<path d="M1231.31 68.1571L1228.89 70.1427L1231.11 72.3538L1227.99 72.0423L1228 75.1772L1226.01 72.7512L1223.8 74.9735L1224.11 71.8541L1220.98 71.8621L1223.4 69.8766L1221.18 67.6655L1224.3 67.977L1224.29 64.842L1226.28 67.2681L1228.49 65.0457L1228.18 68.1651L1231.31 68.1571Z" fill="#7E7E7E"/>
<path d="M1289.68 27.4599L1291.9 26.6694L1290.89 24.5386L1293.02 25.5515L1293.81 23.3286L1294.6 25.5515L1296.73 24.5386L1295.72 26.6694L1297.94 27.4599L1295.72 28.2504L1296.73 30.3812L1294.6 29.3683L1293.81 31.5912L1293.02 29.3683L1290.89 30.3812L1291.9 28.2504L1289.68 27.4599Z" fill="#7E7E7E"/>
<path d="M1304.99 15.6406L1303.27 16.2524L1304.05 17.9017L1302.4 17.1177L1301.79 18.8383L1301.18 17.1177L1299.53 17.9017L1300.31 16.2524L1298.59 15.6406L1300.31 15.0287L1299.53 13.3795L1301.18 14.1634L1301.79 12.4429L1302.4 14.1634L1304.05 13.3795L1303.27 15.0287L1304.99 15.6406Z" fill="#7E7E7E"/>
<path d="M111.186 653.48L110.487 653.27L112.13 647.793L88.2959 645.886L113.697 639.134L113.886 639.841L92.6004 645.498L113.089 647.137L111.186 653.48Z" fill="#7E7E7E"/>
<path d="M143.942 628.489L137.237 620.262L150.665 606.224L160.666 612.286L160.288 612.911L150.787 607.153L138.212 620.301L144.509 628.029L143.942 628.489Z" fill="#7E7E7E"/>
<path d="M150.392 606.837L145.568 595.983L153.704 586.942L154.248 587.431L146.429 596.12L151.06 606.54L150.392 606.837Z" fill="#7E7E7E"/>
<path d="M131.749 600.588L124.378 595.367L122.888 581.36L118.176 568.401L118.862 568.151L123.61 581.239L125.07 594.962L131.883 599.788L145.897 595.7L146.101 596.402L131.749 600.588Z" fill="#7E7E7E"/>
<path d="M90.0891 645.761L85.6568 622.418L85.6504 598.199L102.189 589.096L113.853 601.203L124.537 594.851L124.911 595.478L113.729 602.128L102.05 590.006L86.3809 598.631V622.349L90.8067 645.624L90.0891 645.761Z" fill="#7E7E7E"/>
<path d="M122.979 607.121L113.615 601.986L113.966 601.345L122.922 606.256L131.599 599.894L132.031 600.483L122.979 607.121Z" fill="#7E7E7E"/>
<path d="M112.288 645.27C109.937 645.27 110.223 648.912 112.563 648.912C114.914 648.912 114.627 645.27 112.288 645.27Z" fill="#7E7E7E"/>
<path d="M89.6993 643.693C87.3479 643.693 87.6346 647.335 89.9738 647.335C92.3252 647.335 92.0385 643.693 89.6993 643.693Z" fill="#7E7E7E"/>
<path d="M110.581 651.967C108.229 651.967 108.515 655.609 110.855 655.609C113.206 655.609 112.92 651.967 110.581 651.967Z" fill="#7E7E7E"/>
<path d="M144.331 627.015C141.98 627.015 142.266 630.657 144.606 630.657C146.957 630.657 146.671 627.015 144.331 627.015Z" fill="#7E7E7E"/>
<path d="M154.443 584.728C152.092 584.728 152.379 588.37 154.718 588.37C157.069 588.37 156.783 584.728 154.443 584.728Z" fill="#7E7E7E"/>
<path d="M160.616 611.125C158.265 611.125 158.551 614.767 160.891 614.767C163.243 614.767 162.956 611.125 160.616 611.125Z" fill="#7E7E7E"/>
<path d="M124.37 593.527C122.019 593.527 122.305 597.169 124.645 597.169C126.996 597.169 126.71 593.527 124.37 593.527Z" fill="#7E7E7E"/>
<path d="M131.856 598.386C129.504 598.386 129.791 602.028 132.13 602.028C134.481 602.028 134.196 598.386 131.856 598.386Z" fill="#7E7E7E"/>
<path d="M122.662 605.083C120.311 605.083 120.598 608.725 122.937 608.725C125.288 608.725 125.002 605.083 122.662 605.083Z" fill="#7E7E7E"/>
<path d="M113.863 599.436C111.512 599.436 111.799 603.078 114.139 603.078C116.489 603.078 116.204 599.436 113.863 599.436Z" fill="#7E7E7E"/>
<path d="M118.065 566.474C115.714 566.474 116.001 570.116 118.341 570.116C120.691 570.116 120.406 566.474 118.065 566.474Z" fill="#7E7E7E"/>
<path d="M101.782 588.405C99.4303 588.405 99.7159 592.046 102.056 592.046C104.408 592.046 104.121 588.405 101.782 588.405Z" fill="#7E7E7E"/>
<path d="M85.8911 620.186C83.5397 620.186 83.8253 623.828 86.1656 623.828C88.517 623.828 88.2303 620.186 85.8911 620.186Z" fill="#7E7E7E"/>
<path d="M118.519 639.488L115.975 640.392L117.134 642.831L114.696 641.671L113.791 644.215L112.887 641.671L110.448 642.831L111.607 640.392L109.063 639.488L111.607 638.583L110.448 636.144L112.887 637.304L113.791 634.76L114.696 637.304L117.134 636.144L115.975 638.583L118.519 639.488Z" fill="#7E7E7E"/>
<path d="M91.6024 600.207L88.2535 600.312L88.6991 603.632L86.2569 601.339L84.2238 604.002L84.1189 600.653L80.7981 601.098L83.0919 598.656L80.4287 596.623L83.7776 596.518L83.3321 593.197L85.7743 595.491L87.8074 592.828L87.9123 596.177L91.2331 595.731L88.9392 598.174L91.6024 600.207Z" fill="#7E7E7E"/>
<path d="M149.988 595.348L148.183 595.99L149.005 597.721L147.274 596.898L146.632 598.704L145.99 596.898L144.259 597.721L145.082 595.99L143.276 595.348L145.082 594.706L144.259 592.975L145.99 593.797L146.632 591.992L147.274 593.797L149.005 592.975L148.183 594.706L149.988 595.348Z" fill="#7E7E7E"/>
<path d="M152.815 610.253L151.009 608.735L149.683 610.686L149.479 608.336L147.162 608.778L148.68 606.972L146.729 605.645L149.079 605.442L148.637 603.124L150.443 604.642L151.77 602.691L151.973 605.042L154.291 604.6L152.773 606.406L154.724 607.732L152.373 607.936L152.815 610.253Z" fill="#7E7E7E"/>
<path d="M139.741 620.186L138.675 620.623L139.218 621.639L138.155 621.194L137.821 622.297L137.384 621.23L136.367 621.773L136.813 620.71L135.71 620.376L136.776 619.939L136.233 618.923L137.296 619.368L137.631 618.265L138.068 619.332L139.084 618.788L138.639 619.851L139.741 620.186Z" fill="#7E7E7E"/>
<path d="M852.373 484.797L851.683 484.559L857.239 468.474L847.88 453.849L848.495 453.455L858.046 468.378L852.373 484.797Z" fill="#7E7E7E"/>
<path d="M790.896 546.504H754.724L737.754 537.413L747.49 521.628L741.809 519.057L728.659 524.61L728.375 523.936L741.819 518.26L748.547 521.304L738.783 537.136L754.907 545.773H790.24L793.758 512.942L793.786 512.884L798.857 502.468L819.65 477.516H823.895L833.883 473.991L857.555 468.071L857.732 468.78L834.093 474.69L823.958 478.247H819.992L799.446 502.902L794.471 513.146L790.896 546.504Z" fill="#7E7E7E"/>
<path d="M820.565 476.614L820.368 476.417C819.691 475.74 818.372 475.877 817.793 476.612C817.142 477.437 817.264 478.464 817.987 479.187L818.184 479.384C818.863 480.062 820.18 479.924 820.76 479.189C821.41 478.364 821.288 477.337 820.565 476.614Z" fill="#7E7E7E"/>
<path d="M824.753 476.572C822.402 476.572 822.688 480.214 825.028 480.214C827.379 480.214 827.092 476.572 824.753 476.572Z" fill="#7E7E7E"/>
<path d="M799.735 500.408C797.385 500.408 797.67 504.05 800.011 504.05C802.362 504.05 802.075 500.408 799.735 500.408Z" fill="#7E7E7E"/>
<path d="M793.234 512.03C790.884 512.03 791.169 515.672 793.51 515.672C795.861 515.672 795.574 512.03 793.234 512.03Z" fill="#7E7E7E"/>
<path d="M857.65 466.526C855.299 466.526 855.586 470.168 857.925 470.168C860.276 470.168 859.99 466.526 857.65 466.526Z" fill="#7E7E7E"/>
<path d="M847.801 451.358C845.449 451.358 845.736 455 848.075 455C850.427 455 850.14 451.358 847.801 451.358Z" fill="#7E7E7E"/>
<path d="M754.428 544.73C752.076 544.73 752.363 548.372 754.703 548.372C757.054 548.372 756.768 544.73 754.428 544.73Z" fill="#7E7E7E"/>
<path d="M747.533 520.304C745.182 520.304 745.468 523.946 747.809 523.946C750.159 523.946 749.873 520.304 747.533 520.304Z" fill="#7E7E7E"/>
<path d="M741.229 517.152C738.878 517.152 739.165 520.795 741.505 520.795C743.855 520.795 743.57 517.152 741.229 517.152Z" fill="#7E7E7E"/>
<path d="M794.496 549.703L791.7 548.537L790.825 551.436L789.673 548.635L787.004 550.066L788.17 547.271L785.271 546.395L788.072 545.243L786.641 542.574L789.436 543.74L790.312 540.841L791.464 543.642L794.133 542.211L792.966 545.006L795.866 545.882L793.065 547.034L794.496 549.703Z" fill="#7E7E7E"/>
<path d="M744.912 537.49L741.942 538.188L742.939 541.073L740.345 539.466L739.01 542.21L738.312 539.24L735.428 540.237L737.035 537.642L734.29 536.308L737.261 535.61L736.264 532.726L738.858 534.333L740.192 531.588L740.891 534.559L743.775 533.561L742.168 536.156L744.912 537.49Z" fill="#7E7E7E"/>
<path d="M726.593 525.277L727.436 524.369L726.446 523.622L727.685 523.576L727.513 522.349L728.421 523.192L729.167 522.203L729.213 523.441L730.441 523.269L729.597 524.177L730.587 524.924L729.349 524.97L729.52 526.197L728.612 525.354L727.866 526.343L727.82 525.105L726.593 525.277Z" fill="#7E7E7E"/>
<path d="M850.893 488.834L850.709 486.38L848.287 486.813L849.892 484.949L847.873 483.542L850.326 483.358L849.894 480.936L851.758 482.541L853.165 480.522L853.349 482.976L855.771 482.543L854.166 484.408L856.184 485.814L853.731 485.998L854.164 488.42L852.299 486.815L850.893 488.834Z" fill="#7E7E7E"/>
<path d="M71.1099 87.0353L70.4521 86.7186L74.2602 78.8072L76.0351 39.1781L76.0993 39.0897L93.1897 15.4019L120.549 42.2599L109.833 72.2255L109.145 71.9801L119.705 42.454L93.2853 16.519L76.7556 39.4292L74.9835 78.9898L74.9507 79.0569L71.1099 87.0353Z" fill="#7E7E7E"/>
<rect x="77.3008" y="82.5088" width="1" height="43.8381" transform="rotate(-86.0062 77.3008 82.5088)" fill="#7E7E7E"/>
<path d="M119.838 40.7527C117.487 40.7527 117.773 44.3949 120.112 44.3949C122.464 44.3949 122.177 40.7527 119.838 40.7527Z" fill="#7E7E7E"/>
<path d="M109.299 70.301C106.947 70.301 107.234 73.9432 109.573 73.9432C111.925 73.9432 111.639 70.301 109.299 70.301Z" fill="#7E7E7E"/>
<path d="M76.1065 38.1909C73.7551 38.1909 74.0418 41.8331 76.381 41.8331C78.7324 41.8331 78.4468 38.1909 76.1065 38.1909Z" fill="#7E7E7E"/>
<path d="M74.2354 76.8018C71.884 76.8018 72.1707 80.444 74.5099 80.444C76.8613 80.444 76.5746 76.8018 74.2354 76.8018Z" fill="#7E7E7E"/>
<path d="M96.9278 14.4038L95.2402 15.9476L96.9479 17.4692L94.663 17.3675L94.7946 19.651L93.2508 17.9633L91.7293 19.6711L91.8309 17.3861L89.5475 17.5178L91.2351 15.9739L89.5273 14.4524L91.8123 14.5541L91.6806 12.2706L93.2245 13.9582L94.746 12.2505L94.6444 14.5355L96.9278 14.4038Z" fill="#7E7E7E"/>
<path d="M73.7817 86.4034L72.2577 87.2323L73.2376 88.6639L71.5739 88.1725L71.2545 89.8776L70.4256 88.3537L68.994 89.3336L69.4854 87.6698L67.7803 87.3505L69.3042 86.5215L68.3243 85.09L69.9881 85.5814L70.3074 83.8762L71.1364 85.4002L72.5679 84.4203L72.0765 86.084L73.7817 86.4034Z" fill="#7E7E7E"/>
<path d="M497.599 675.162L497.201 674.55L512.868 664.367L525.542 635.06L576.337 641.807L576.412 641.862L594.254 654.945L596.253 664.539L595.538 664.687L593.596 655.369L576.055 642.506L525.993 635.856L513.451 664.859L513.359 664.919L497.599 675.162Z" fill="#7E7E7E"/>
<path d="M525.872 634.444C523.521 634.444 523.807 638.087 526.147 638.087C528.498 638.087 528.212 634.444 525.872 634.444Z" fill="#7E7E7E"/>
<path d="M512.871 663.205C510.52 663.205 510.806 666.847 513.146 666.847C515.497 666.847 515.21 663.205 512.871 663.205Z" fill="#7E7E7E"/>
<path d="M497.506 673.448C495.155 673.448 495.441 677.09 497.781 677.09C500.132 677.09 499.845 673.448 497.506 673.448Z" fill="#7E7E7E"/>
<path d="M595.804 662.613C593.452 662.613 593.739 666.255 596.078 666.255C598.43 666.255 598.143 662.613 595.804 662.613Z" fill="#7E7E7E"/>
<path d="M582.349 642.507L579.296 643.593L580.687 646.519L577.76 645.128L576.674 648.181L575.589 645.128L572.662 646.519L574.053 643.593L571 642.507L574.053 641.421L572.662 638.495L575.589 639.886L576.674 636.833L577.76 639.886L580.687 638.495L579.296 641.421L582.349 642.507Z" fill="#7E7E7E"/>
<path d="M597.707 654.777L595.745 655.705L596.869 657.562L594.825 656.831L594.306 658.939L593.378 656.977L591.521 658.101L592.252 656.057L590.145 655.538L592.106 654.61L590.983 652.753L593.026 653.484L593.545 651.376L594.473 653.338L596.33 652.215L595.599 654.258L597.707 654.777Z" fill="#7E7E7E"/>
<path d="M699.509 175.362L671.143 162.065L655.056 151.643L648.363 137.662L634.967 117.059L611.068 95.2249L611.561 94.6855L635.554 116.621L648.999 137.306L655.626 151.142L671.496 161.427L699.819 174.7L699.509 175.362Z" fill="#7E7E7E"/>
<path d="M655.333 151.757L642.214 151.459L642.12 151.389L595.139 115.931L595.578 115.347L642.466 150.734L655.35 151.027L655.333 151.757Z" fill="#7E7E7E"/>
<path d="M699.965 173.918C697.615 173.918 697.901 177.56 700.241 177.56C702.592 177.56 702.306 173.918 699.965 173.918Z" fill="#7E7E7E"/>
<path d="M610.534 92.5618C608.182 92.5618 608.468 96.204 610.808 96.204C613.16 96.204 612.873 92.5618 610.534 92.5618Z" fill="#7E7E7E"/>
<path d="M641.46 149.689C639.109 149.689 639.395 153.331 641.736 153.331C644.086 153.331 643.8 149.689 641.46 149.689Z" fill="#7E7E7E"/>
<path d="M635.156 114.624C632.805 114.624 633.092 118.266 635.431 118.266C637.782 118.266 637.497 114.624 635.156 114.624Z" fill="#7E7E7E"/>
<path d="M648.749 134.717C646.398 134.717 646.684 138.359 649.024 138.359C651.375 138.359 651.089 134.717 648.749 134.717Z" fill="#7E7E7E"/>
<path d="M593.335 113.097L595.64 114.307L596.609 111.892L597.383 114.377L599.776 113.354L598.566 115.658L600.981 116.628L598.496 117.401L599.519 119.795L597.215 118.584L596.245 121L595.472 118.515L593.078 119.537L594.289 117.233L591.873 116.264L594.358 115.49L593.335 113.097Z" fill="#7E7E7E"/>
<path d="M658.998 151.392L657.03 152.092L657.927 153.979L656.041 153.082L655.341 155.05L654.641 153.082L652.755 153.979L653.651 152.092L651.684 151.392L653.651 150.693L652.755 148.806L654.641 149.703L655.341 147.735L656.041 149.703L657.927 148.806L657.03 150.693L658.998 151.392Z" fill="#7E7E7E"/>
<path d="M675.086 163.51L672.707 163.28L672.72 165.669L671.202 163.824L669.521 165.523L669.752 163.145L667.362 163.158L669.207 161.639L667.508 159.958L669.887 160.189L669.874 157.8L671.393 159.644L673.073 157.946L672.842 160.324L675.232 160.311L673.387 161.83L675.086 163.51Z" fill="#7E7E7E"/>
<path d="M412.336 407.09L411.64 406.87L418.141 386.186L418.837 386.406L412.336 407.09Z" fill="#7E7E7E"/>
<path d="M418.486 386.719L418.302 386.609L389.936 369.768C385.8 367.475 374.914 361.458 374.326 361.224C373.588 360.929 351.041 350.718 350.081 350.284L349.909 350.206L349.873 350.021L345.111 325.613L360.725 308.197L382.037 310.899L401.289 334.001L444.58 356.382H469.312V357.113H444.714L434.128 377.694L418.486 386.719ZM350.554 349.697C352.694 350.666 373.907 360.269 374.597 360.546C375.348 360.846 389.689 368.796 390.299 369.135L418.491 385.873L433.578 377.168L444 356.905L400.822 334.581L400.775 334.525L381.661 311.588L361.013 308.971L345.897 325.83L350.554 349.697Z" fill="#7E7E7E"/>
<path d="M360.581 306.65C358.23 306.65 358.516 310.293 360.856 310.293C363.206 310.293 362.921 306.65 360.581 306.65Z" fill="#7E7E7E"/>
<path d="M344.821 324.38C342.47 324.38 342.757 328.022 345.096 328.022C347.447 328.022 347.162 324.38 344.821 324.38Z" fill="#7E7E7E"/>
<path d="M444.301 355.241C441.949 355.241 442.236 358.883 444.575 358.883C446.927 358.883 446.64 355.241 444.301 355.241Z" fill="#7E7E7E"/>
<path d="M433.663 376.516C431.312 376.516 431.598 380.158 433.938 380.158C436.289 380.158 436.003 376.516 433.663 376.516Z" fill="#7E7E7E"/>
<path d="M469.516 355.438C467.164 355.438 467.451 359.081 469.791 359.081C472.141 359.081 471.856 355.438 469.516 355.438Z" fill="#7E7E7E"/>
<path d="M404.646 334.605L402.654 335.123L403.372 337.053L401.597 336.01L400.74 337.883L400.222 335.89L398.293 336.608L399.335 334.833L397.463 333.976L399.456 333.458L398.737 331.529L400.513 332.572L401.369 330.699L401.887 332.692L403.817 331.974L402.774 333.749L404.646 334.605Z" fill="#7E7E7E"/>
<path d="M384.065 311.558L382.369 311.91L382.892 313.561L381.444 312.61L380.647 314.148L380.295 312.452L378.644 312.975L379.594 311.527L378.057 310.729L379.752 310.377L379.23 308.726L380.677 309.676L381.475 308.139L381.827 309.835L383.478 309.312L382.528 310.76L384.065 311.558Z" fill="#7E7E7E"/>
<path d="M420.209 381.627L420.177 384.469L423.007 384.211L420.975 386.198L423.158 388.016L420.317 387.984L420.574 390.814L418.588 388.782L416.769 390.965L416.801 388.124L413.971 388.381L416.003 386.395L413.82 384.576L416.662 384.608L416.404 381.778L418.39 383.81L420.209 381.627Z" fill="#7E7E7E"/>
<path d="M407.602 407.93L409.78 406.58L408.215 404.55L410.71 405.136L411.038 402.594L412.388 404.772L414.418 403.207L413.832 405.702L416.374 406.03L414.196 407.381L415.761 409.41L413.266 408.825L412.938 411.367L411.587 409.188L409.558 410.753L410.143 408.258L407.602 407.93Z" fill="#7E7E7E"/>
<path d="M352.387 350.927L350.901 351.353L351.476 352.787L350.125 352.038L349.518 353.459L349.092 351.974L347.658 352.549L348.407 351.197L346.986 350.59L348.471 350.164L347.896 348.73L349.248 349.479L349.855 348.059L350.281 349.544L351.715 348.969L350.966 350.32L352.387 350.927Z" fill="#7E7E7E"/>
<path d="M378.057 361.79L376.751 362.101L377.193 363.368L376.05 362.665L375.467 363.874L375.156 362.568L373.888 363.01L374.592 361.867L373.383 361.283L374.689 360.973L374.246 359.705L375.39 360.409L375.973 359.2L376.284 360.506L377.551 360.063L376.848 361.206L378.057 361.79Z" fill="#7E7E7E"/>
<path d="M932.371 108.882L907.569 75.6184L892.194 99.4068L891.58 99.0102L907.526 74.3386L932.956 108.445L932.371 108.882Z" fill="#7E7E7E"/>
<path d="M907.902 75.0699L907.194 74.8872L911.902 56.6447L905.416 20.9706L906.135 20.8394L912.65 56.6718L907.902 75.0699Z" fill="#7E7E7E"/>
<path d="M891.008 97.1106C888.657 97.1106 888.942 100.753 891.283 100.753C893.634 100.753 893.347 97.1106 891.008 97.1106Z" fill="#7E7E7E"/>
<path d="M911.889 53.7727C909.537 53.7727 909.824 57.4149 912.163 57.4149C914.515 57.4149 914.229 53.7727 911.889 53.7727Z" fill="#7E7E7E"/>
<path d="M907.359 74.0627C905.007 74.0627 905.293 77.705 907.633 77.705C909.985 77.705 909.698 74.0627 907.359 74.0627Z" fill="#7E7E7E"/>
<path d="M934.483 111.933L932.879 110.522L931.638 112.261L931.502 110.129L929.395 110.482L930.806 108.878L929.066 107.638L931.198 107.501L930.845 105.394L932.45 106.805L933.69 105.066L933.826 107.198L935.933 106.845L934.522 108.449L936.262 109.689L934.13 109.826L934.483 111.933Z" fill="#7E7E7E"/>
<path d="M903.556 15.8021L905.726 18.1231L907.814 15.7273L907.708 18.9033L910.878 18.6854L908.557 20.856L910.953 22.9437L907.777 22.8374L907.995 26.0078L905.824 23.6868L903.737 26.0826L903.843 22.9066L900.672 23.1245L902.993 20.9539L900.598 18.8662L903.774 18.9725L903.556 15.8021Z" fill="#7E7E7E"/>
<path d="M1045.58 355.955C1045.53 355.948 1045.48 355.939 1045.43 355.897C1044.93 355.868 1043.96 355.732 1042.1 355.468L1032.89 354.166C1025.27 353.087 1015.12 351.646 1004.96 350.204L964.38 344.441L924.258 350.824L959.5 317.709L959.636 317.703L1023.37 315.336L1023.47 315.393L1048.09 330.288L1048.07 330.522C1047.02 339.33 1045.54 353.543 1045.87 355.265L1046.05 355.294L1046 355.652C1045.98 355.817 1045.94 355.93 1045.59 355.902L1045.58 355.955ZM964.374 343.702L964.428 343.71C965.201 343.82 1038.52 354.237 1045.2 355.167C1045.01 353.482 1045.25 348.101 1047.31 330.669L1023.18 316.074L959.8 318.43L926.49 349.729L964.374 343.702Z" fill="#7E7E7E"/>
<path d="M1023.62 315.831L1022.93 315.579L1030.27 295.653L1059.91 279.486L1073.1 295.677L1072.54 296.138L1059.73 280.418L1030.86 296.163L1023.62 315.831Z" fill="#7E7E7E"/>
<path d="M965.271 342.762C962.919 342.762 963.206 346.404 965.545 346.404C967.897 346.404 967.611 342.762 965.271 342.762Z" fill="#7E7E7E"/>
<path d="M958.77 316.168C956.418 316.168 956.705 319.81 959.044 319.81C961.396 319.81 961.11 316.168 958.77 316.168Z" fill="#7E7E7E"/>
<path d="M1023.38 313.213C1021.03 313.213 1021.32 316.856 1023.66 316.856C1026.01 316.856 1025.72 313.213 1023.38 313.213Z" fill="#7E7E7E"/>
<path d="M1059.04 277.952C1056.69 277.952 1056.97 281.595 1059.31 281.595C1061.66 281.595 1061.38 277.952 1059.04 277.952Z" fill="#7E7E7E"/>
<path d="M1047.61 328.579C1045.26 328.579 1045.55 332.221 1047.89 332.221C1050.24 332.221 1049.95 328.579 1047.61 328.579Z" fill="#7E7E7E"/>
<path d="M1074.34 300.851L1072.58 298.483L1070.4 300.481L1070.83 297.557L1067.88 297.431L1070.24 295.665L1068.25 293.489L1071.17 293.916L1071.3 290.964L1073.06 293.333L1075.24 291.335L1074.81 294.258L1077.76 294.384L1075.39 296.15L1077.39 298.326L1074.47 297.9L1074.34 300.851Z" fill="#7E7E7E"/>
<path d="M1033.57 292.972L1032.51 295.125L1034.76 295.953L1032.5 296.732L1033.5 298.908L1031.35 297.855L1030.52 300.105L1029.74 297.838L1027.57 298.843L1028.62 296.69L1026.37 295.862L1028.64 295.083L1027.63 292.907L1029.78 293.96L1030.61 291.71L1031.39 293.977L1033.57 292.972Z" fill="#7E7E7E"/>
<path d="M1049.52 356.599L1047.24 356.802L1047.67 359.049L1045.91 357.58L1044.63 359.475L1044.43 357.196L1042.18 357.629L1043.65 355.874L1041.76 354.592L1044.04 354.389L1043.6 352.142L1045.36 353.611L1046.64 351.716L1046.84 353.995L1049.09 353.562L1047.62 355.317L1049.52 356.599Z" fill="#7E7E7E"/>
<path d="M921.479 349.901L923.87 348.924L922.653 346.645L925.035 347.644L925.786 345.173L926.764 347.563L929.042 346.347L928.044 348.729L930.515 349.479L928.124 350.457L929.341 352.736L926.959 351.737L926.208 354.208L925.23 351.818L922.952 353.034L923.951 350.652L921.479 349.901Z" fill="#7E7E7E"/>
<path d="M139.984 291.829L132.225 284.271L132.2 284.172L124.499 253.476L124.506 253.413L127.271 226.447L134.796 213.378C137.284 207.751 139.921 201.342 139.874 200.618L140.592 200.487C140.796 201.507 136.704 210.865 135.447 213.708L127.982 226.677L125.239 253.424L132.883 283.893L140.494 291.306L139.984 291.829Z" fill="#7E7E7E"/>
<rect x="116.856" y="284.811" width="29.0833" height="1" transform="rotate(-40.0063 116.856 284.811)" fill="#7E7E7E"/>
<path d="M103.016 232.548L102.947 232.537L78.0283 228.634L84.9196 200.472L85.6287 200.646L78.9272 228.035L102.99 231.804L127.546 226.206L127.708 226.918L103.016 232.548Z" fill="#7E7E7E"/>
<path d="M99.0714 278.102L73.1628 272.147L67.338 273.603L67.1611 272.894L73.1557 271.395L73.2413 271.415L98.6619 277.259L110.06 253.085H124.869V253.816H110.524L99.0714 278.102Z" fill="#7E7E7E"/>
<rect x="102.712" y="254.458" width="1" height="22.4884" transform="rotate(-18.9114 102.712 254.458)" fill="#7E7E7E"/>
<path d="M126.945 224.76C124.593 224.76 124.879 228.402 127.219 228.402C129.571 228.402 129.284 224.76 126.945 224.76Z" fill="#7E7E7E"/>
<path d="M134.823 211.758C132.472 211.758 132.759 215.4 135.098 215.4C137.449 215.4 137.164 211.758 134.823 211.758Z" fill="#7E7E7E"/>
<path d="M78.879 226.335C76.5276 226.335 76.8143 229.977 79.1535 229.977C81.5049 229.977 81.2193 226.335 78.879 226.335Z" fill="#7E7E7E"/>
<path d="M85.0522 198.757C82.7008 198.757 82.9864 202.399 85.3267 202.399C87.6781 202.399 87.3914 198.757 85.0522 198.757Z" fill="#7E7E7E"/>
<path d="M109.74 251.681C107.389 251.681 107.675 255.323 110.015 255.323C112.367 255.323 112.08 251.681 109.74 251.681Z" fill="#7E7E7E"/>
<path d="M124.317 251.024C121.966 251.024 122.253 254.667 124.592 254.667C126.943 254.667 126.658 251.024 124.317 251.024Z" fill="#7E7E7E"/>
<path d="M132.46 282.28C130.109 282.28 130.395 285.922 132.735 285.922C135.086 285.922 134.799 282.28 132.46 282.28Z" fill="#7E7E7E"/>
<path d="M109.872 300.797C107.521 300.797 107.807 304.44 110.147 304.44C112.498 304.44 112.212 300.797 109.872 300.797Z" fill="#7E7E7E"/>
<path d="M99.3663 276.108C97.0149 276.108 97.3016 279.75 99.6408 279.75C101.992 279.75 101.705 276.108 99.3663 276.108Z" fill="#7E7E7E"/>
<path d="M72.8378 269.804C70.4864 269.804 70.7732 273.447 73.1135 273.447C75.4638 273.447 75.1781 269.804 72.8378 269.804Z" fill="#7E7E7E"/>
<path d="M106.648 229.977L105.107 231.858L107.135 233.198L104.716 233.439L105.202 235.82L103.322 234.28L101.981 236.307L101.741 233.889L99.3591 234.374L100.899 232.494L98.8721 231.153L101.291 230.913L100.805 228.531L102.685 230.072L104.026 228.044L104.266 230.463L106.648 229.977Z" fill="#7E7E7E"/>
<path d="M64.2422 273.447L65.8224 272.764L64.9828 271.262L66.5826 271.897L67.0513 270.241L67.7335 271.821L69.236 270.981L68.601 272.581L70.2571 273.05L68.6769 273.732L69.5165 275.234L67.9168 274.599L67.448 276.256L66.7659 274.675L65.2633 275.515L65.8983 273.915L64.2422 273.447Z" fill="#7E7E7E"/>
<path d="M143.235 292.572L141.431 292.605L141.648 294.396L140.349 293.144L139.236 294.563L139.203 292.76L137.412 292.976L138.664 291.678L137.244 290.564L139.048 290.531L138.831 288.74L140.13 289.992L141.243 288.573L141.276 290.376L143.067 290.16L141.815 291.459L143.235 292.572Z" fill="#7E7E7E"/>
<path d="M144.614 197.426L142.857 199.95L145.546 201.441L142.519 201.983L143.367 204.939L140.843 203.182L139.352 205.871L138.81 202.844L135.854 203.692L137.611 201.168L134.922 199.677L137.949 199.135L137.101 196.179L139.625 197.936L141.116 195.247L141.658 198.274L144.614 197.426Z" fill="#7E7E7E"/>
</g>
<defs>
<filter id="filter0_d_1_26276" x="-3" y="0" width="1372" height="696" filterUnits="userSpaceOnUse" color-interpolation-filters="sRGB">
<feFlood flood-opacity="0" result="BackgroundImageFix"/>
<feColorMatrix in="SourceAlpha" type="matrix" values="0 0 0 0 0 0 0 0 0 0 0 0 0 0 0 0 0 0 127 0" result="hardAlpha"/>
<feOffset dy="3"/>
<feGaussianBlur stdDeviation="1.5"/>
<feComposite in2="hardAlpha" operator="out"/>
<feColorMatrix type="matrix" values="0 0 0 0 0 0 0 0 0 0 0 0 0 0 0 0 0 0 0.160784 0"/>
<feBlend mode="normal" in2="BackgroundImageFix" result="effect1_dropShadow_1_26276"/>
<feBlend mode="normal" in="SourceGraphic" in2="effect1_dropShadow_1_26276" result="shape"/>
</filter>
</defs>
</svg>
