<svg width="169" height="36" viewBox="0 0 169 36" fill="none" xmlns="http://www.w3.org/2000/svg">
<path d="M39.288 16.5756C39.1925 6.79359 31.4651 1.26971 30.7103 0.74321C27.1401 5.08139 23.574 9.42435 20.0128 13.7715C16.4414 9.43272 12.8753 5.09035 9.31519 0.74321C8.55683 1.26434 0.830085 6.79837 0.735664 16.5756C0.725532 17.585 0.777534 25.1671 6.8476 30.7662C9.24354 32.9547 12.1552 34.4996 15.3112 35.2568V31.6878C11.9077 30.6115 8.95246 28.4468 6.90021 25.5268C5.13068 22.9815 4.15052 19.9719 4.0824 16.8732C3.9784 10.0495 8.54487 5.62404 9.36066 4.86086C12.916 9.3604 16.4658 13.8576 20.011 18.3517C23.5621 13.8552 27.112 9.35801 30.6613 4.86086C31.4771 5.62643 36.0429 10.0513 35.9396 16.8732C35.8696 19.9719 34.8889 22.9821 33.1187 25.5268C31.0677 28.448 28.1124 30.6132 24.7089 31.6878V35.2568C27.8638 34.4996 30.7748 32.9541 33.1702 30.7662C39.251 25.1671 39.2976 17.5861 39.288 16.5756ZM16.0703 7.30934L16.0935 7.29918C18.5988 6.24736 21.4219 6.24736 23.9279 7.29918L23.9529 7.30934L24.5398 6.59219L25.9849 4.82979C22.2318 2.92574 17.7956 2.92574 14.043 4.82979L15.4881 6.59219L16.0703 7.30934ZM33.1857 16.5756C33.191 13.2952 31.9671 10.1325 29.7565 7.70975L27.7951 10.1923C31.3259 14.491 30.7031 20.8384 26.4038 24.3692C22.105 27.9006 15.7576 27.2779 12.2269 22.9785C9.17481 19.2631 9.17481 13.9078 12.2269 10.1923L10.2661 7.70975C5.37031 13.0944 5.76716 21.4277 11.1517 26.3229C13.1508 28.1403 15.6596 29.299 18.3394 29.6427V35.0554H21.7034V29.6427C28.2702 28.7911 33.1857 23.1979 33.1857 16.5756ZM56.7609 6.07166L63.0958 23.9527L69.3947 6.07166H76.0678V30.7256H70.9713V23.9861L71.4757 12.3521L64.8187 30.7256H61.3339L54.6937 12.3707L55.1981 23.9861V30.7256H50.1231V6.07166H56.7609ZM99.1625 6.07166V22.311C99.1625 25.0087 98.3187 27.1416 96.6304 28.711C94.9415 30.2798 92.6365 31.0644 89.7141 31.0656C86.8347 31.0656 84.5482 30.3031 82.8551 28.7779C81.1614 27.2528 80.2985 25.1587 80.265 22.4957V6.07166H85.3449V22.3445C85.3449 23.9592 85.7315 25.1366 86.5054 25.8764C87.3845 26.6552 88.5368 27.0532 89.7087 26.9832C92.5648 26.9832 94.0152 25.4814 94.0606 22.4789V6.07166H99.1625ZM123.546 18.9547C123.594 21.0112 123.214 23.0556 122.429 24.9579C121.758 26.5607 120.691 27.9681 119.329 29.0486L123.429 32.2645L120.194 35.1235L114.938 30.9103C114.323 31.013 113.699 31.0644 113.075 31.0632C111.15 31.0961 109.254 30.5863 107.605 29.5925C105.979 28.5849 104.684 27.1231 103.879 25.3876C102.967 23.4172 102.51 21.2675 102.542 19.0969V17.879C102.497 15.6707 102.947 13.4805 103.858 11.4688C104.649 9.71779 105.938 8.23985 107.566 7.2185C110.951 5.24274 115.138 5.24274 118.523 7.2185C120.148 8.23926 121.436 9.71779 122.223 11.4688C123.127 13.4763 123.576 15.6588 123.538 17.8605L123.546 18.9547ZM118.398 17.8377C118.398 15.2518 117.935 13.2898 117.01 11.9511C115.42 9.76141 112.355 9.27614 110.165 10.8664C109.759 11.1623 109.401 11.5178 109.102 11.9224C108.177 13.2486 107.712 15.1921 107.706 17.7523V18.9547C107.706 21.4719 108.169 23.4238 109.094 24.8115C110.627 27.0143 113.657 27.557 115.86 26.0235C116.306 25.7127 116.698 25.329 117.017 24.8886C117.931 23.5505 118.394 21.5998 118.405 19.0372L118.398 17.8377ZM141.192 25.6464H132.277L130.586 30.7262H125.198L134.368 6.07166H139.077L148.307 30.7256H142.902L141.192 25.6464ZM133.657 21.5323H139.822L136.722 12.3037L133.657 21.5323ZM150.608 30.7256V6.07166H159.242C162.236 6.07166 164.505 6.64358 166.051 7.78864C167.597 8.9331 168.37 10.6148 168.37 12.8344C168.393 13.9693 168.068 15.0845 167.438 16.0299C166.806 16.9551 165.901 17.6609 164.848 18.0481C166.038 18.3158 167.095 18.9924 167.837 19.9605C168.585 20.9789 168.969 22.219 168.928 23.4823C168.928 25.8537 168.171 27.6478 166.657 28.8646C165.143 30.0814 162.987 30.7017 160.189 30.7268L150.608 30.7256ZM155.687 16.4005H159.446C162.01 16.3544 163.29 15.3325 163.29 13.334C163.377 12.4197 163.014 11.5196 162.317 10.922C161.394 10.362 160.319 10.1045 159.242 10.1851H155.686L155.687 16.4005ZM155.687 19.9898V26.645H160.04C161.047 26.7053 162.042 26.4012 162.843 25.7886C163.523 25.1999 163.895 24.3322 163.852 23.4339C163.852 21.1767 162.684 20.0304 160.347 19.9958L155.687 19.9898Z" fill="white"/>
</svg>
