<svg width="59" height="9" viewBox="0 0 59 9" fill="none" xmlns="http://www.w3.org/2000/svg">
<path d="M26.75 1.98242C26.75 1.43014 27.1977 0.982422 27.75 0.982422H33.3872C33.9395 0.982422 34.3872 1.43014 34.3872 1.98242V7.6196C34.3872 8.17189 33.9395 8.6196 33.3872 8.6196H27.75C27.1977 8.6196 26.75 8.17189 26.75 7.6196V1.98242Z" fill="black"/>
<path d="M18.4772 6.09473H0.658211C0.294228 6.09473 0 5.80051 0 5.43652C0 5.07318 0.294228 4.77832 0.658211 4.77832H18.4772C18.8412 4.77832 19.1354 5.07318 19.1354 5.43652C19.1354 5.80051 18.8412 6.09473 18.4772 6.09473Z" fill="black"/>
<path d="M57.9355 6.09473H40.1152C39.7519 6.09473 39.457 5.80051 39.457 5.43652C39.457 5.07318 39.7519 4.77832 40.1152 4.77832H57.9355C58.2989 4.77832 58.5938 5.07318 58.5938 5.43652C58.5938 5.80051 58.2989 6.09473 57.9355 6.09473Z" fill="black"/>
</svg>
