<svg width="55" height="49" viewBox="0 0 55 49" fill="none" xmlns="http://www.w3.org/2000/svg">
<path d="M28.0249 40.0196H11.2678C6.11894 40.0196 1.90625 35.8069 1.90625 30.6581V10.7648C1.90625 5.616 6.11894 1.40332 11.2678 1.40332H44.0331C49.182 1.40332 53.3947 5.616 53.3947 10.7648V40.0196V47.0407L41.6928 40.0196" fill="#8224E3"/>
<path d="M53.3946 48.4449C53.6287 48.4449 53.8627 48.3981 54.0967 48.2577C54.518 48.0236 54.7988 47.5555 54.7988 47.0407V10.7648C54.7988 4.82021 49.9777 -0.000976562 44.0331 -0.000976562H11.2677C5.32314 -0.000976562 0.501953 4.82021 0.501953 10.7648V30.658C0.501953 36.6026 5.32314 41.4238 11.2677 41.4238H41.3182L52.6925 48.2577C52.8797 48.3981 53.1606 48.4449 53.3946 48.4449ZM44.0331 2.80748C48.433 2.80748 51.9904 6.36486 51.9904 10.7648V44.5599L42.3948 38.8025C42.1608 38.6621 41.9267 38.6153 41.6927 38.6153H11.2677C6.86779 38.6153 3.31041 35.0579 3.31041 30.658V10.7648C3.31041 6.36486 6.86779 2.80748 11.2677 2.80748H44.0331Z" fill="#464C55"/>
<path d="M13.6074 15.4462H41.6919C42.4877 15.4462 43.0962 14.8377 43.0962 14.0419C43.0962 13.2462 42.4877 12.6377 41.6919 12.6377H13.6074C12.8116 12.6377 12.2031 13.2462 12.2031 14.0419C12.2031 14.8377 12.8116 15.4462 13.6074 15.4462ZM13.6074 22.4673H41.6919C42.4877 22.4673 43.0962 21.8588 43.0962 21.0631C43.0962 20.2673 42.4877 19.6588 41.6919 19.6588H13.6074C12.8116 19.6588 12.2031 20.2673 12.2031 21.0631C12.2031 21.8588 12.8116 22.4673 13.6074 22.4673ZM22.9689 29.4884H41.6919C42.4877 29.4884 43.0962 28.8799 43.0962 28.0842C43.0962 27.2885 42.4877 26.68 41.6919 26.68H22.9689C22.1732 26.68 21.5647 27.2885 21.5647 28.0842C21.5647 28.8799 22.1732 29.4884 22.9689 29.4884ZM13.6074 29.4884C14.4031 29.4884 15.0116 28.8799 15.0116 28.0842C15.0116 27.2885 14.4031 26.68 13.6074 26.68C12.8116 26.68 12.2031 27.2885 12.2031 28.0842C12.2031 28.8799 12.8116 29.4884 13.6074 29.4884Z" fill="white"/>
</svg>
