<svg width="254" height="53" viewBox="0 0 254 53" fill="none" xmlns="http://www.w3.org/2000/svg">
<path d="M58.1492 23.8798C58.005 9.12575 46.3499 0.794128 45.2114 0C39.8265 6.54326 34.4478 13.0937 29.0764 19.6505C23.6897 13.1063 18.311 6.55679 12.9413 0C11.7975 0.786026 0.143281 9.13297 0.00088552 23.8798C-0.0144038 25.4023 0.0640268 36.8383 9.21945 45.2835C12.8333 48.5845 17.2248 50.9146 21.9851 52.0566V46.6735C16.8516 45.0501 12.3942 41.7852 9.2988 37.381C6.62985 33.5419 5.15149 29.0025 5.04871 24.3287C4.89188 14.0366 11.7794 7.36172 13.0099 6.21063C18.3723 12.9973 23.7266 19.7803 29.0737 26.5588C34.4298 19.7767 39.7841 12.9937 45.1375 6.21063C46.3679 7.36534 53.2545 14.0393 53.0987 24.3287C52.9932 29.0025 51.514 33.5428 48.844 37.381C45.7505 41.787 41.2931 45.0528 36.1596 46.6735V52.0566C40.9181 50.9146 45.3087 48.5836 48.9216 45.2835C58.0933 36.8383 58.1636 25.4041 58.1492 23.8798ZM23.13 9.90366L23.165 9.88834C26.9436 8.30188 31.2018 8.30188 34.9815 9.88834L35.0193 9.90366L35.9045 8.82199L38.0841 6.16377C32.4232 3.29191 25.7322 3.29191 20.0723 6.16377L22.2519 8.82199L23.13 9.90366ZM48.945 23.8798C48.9531 18.9321 47.1071 14.1618 43.7727 10.5076L40.8144 14.252C46.1399 20.7358 45.2007 30.3095 38.716 35.635C32.2321 40.9613 22.6584 40.0221 17.333 33.5374C12.7296 27.9334 12.7296 19.856 17.333 14.252L14.3755 10.5076C6.99124 18.6292 7.58984 31.1983 15.7114 38.5817C18.7265 41.3228 22.5106 43.0706 26.5525 43.5889V51.7529H31.6264V43.5889C41.531 42.3044 48.945 33.8682 48.945 23.8798ZM84.5033 8.03687L94.0583 35.0067L103.559 8.03687H113.624V45.2222H105.937V35.0572L106.698 17.5097L96.657 45.2222H91.4008L81.3854 17.5376L82.1462 35.0572V45.2222H74.4915V8.03687H84.5033ZM148.457 8.03687V32.5305C148.457 36.5995 147.185 39.8165 144.638 42.1836C142.091 44.5498 138.614 45.7333 134.206 45.7351C129.864 45.7351 126.415 44.585 123.861 42.2846C121.307 39.9842 120.005 36.8257 119.954 32.8091V8.03687H127.616V32.581C127.616 35.0166 128.2 36.7924 129.367 37.9083C130.693 39.0828 132.431 39.6832 134.198 39.5777C138.506 39.5777 140.694 37.3125 140.762 32.7839V8.03687H148.457ZM185.236 27.4683C185.307 30.57 184.733 33.6537 183.551 36.5229C182.539 38.9404 180.929 41.0632 178.875 42.6929L185.058 47.5433L180.18 51.8556L172.252 45.5008C171.323 45.6558 170.383 45.7333 169.442 45.7315C166.538 45.7811 163.679 45.0122 161.192 43.5132C158.739 41.9934 156.786 39.7886 155.571 37.1709C154.196 34.199 153.507 30.9567 153.555 27.6828V25.8458C153.487 22.5151 154.165 19.2115 155.539 16.1774C156.732 13.5363 158.678 11.3071 161.133 9.76664C166.238 6.78662 172.553 6.78662 177.658 9.76664C180.11 11.3063 182.053 13.5363 183.24 16.1774C184.604 19.2052 185.281 22.4971 185.223 25.8178L185.236 27.4683ZM177.471 25.7836C177.471 21.8832 176.772 18.924 175.377 16.9048C172.978 13.6021 168.356 12.8702 165.053 15.2688C164.44 15.715 163.899 16.2513 163.45 16.8616C162.053 18.8618 161.352 21.7931 161.344 25.6547V27.4683C161.344 31.265 162.042 34.209 163.437 36.302C165.75 39.6246 170.319 40.443 173.642 38.13C174.315 37.6613 174.905 37.0826 175.388 36.4183C176.766 34.4001 177.464 31.4579 177.481 27.5927L177.471 25.7836ZM211.85 37.5613H198.404L195.853 45.2231H187.726L201.557 8.03687H208.66L222.582 45.2222H214.43L211.85 37.5613ZM200.485 31.356H209.783L205.108 17.4366L200.485 31.356ZM226.052 45.2222V8.03687H239.075C243.59 8.03687 247.013 8.89949 249.345 10.6266C251.678 12.3528 252.843 14.8893 252.843 18.2371C252.877 19.9489 252.387 21.6309 251.438 23.0569C250.484 24.4522 249.118 25.5168 247.531 26.1009C249.326 26.5047 250.92 27.5251 252.038 28.9854C253.167 30.5213 253.746 32.3917 253.684 34.2973C253.684 37.874 252.543 40.58 250.259 42.4153C247.975 44.2505 244.723 45.1862 240.503 45.2241L226.052 45.2222ZM233.714 23.6157H239.382C243.249 23.5463 245.181 22.0049 245.18 18.9906C245.312 17.6115 244.765 16.254 243.714 15.3526C242.321 14.508 240.699 14.1195 239.075 14.2412H233.712L233.714 23.6157ZM233.714 29.0295V39.0675H240.279C241.797 39.1585 243.298 38.6997 244.506 37.7758C245.532 36.8879 246.092 35.5791 246.028 34.2243C246.028 30.8197 244.266 29.0908 240.742 29.0386L233.714 29.0295Z" fill="#6419BC"/>
</svg>
