<svg width="20" height="14" viewBox="0 0 20 14" fill="none" xmlns="http://www.w3.org/2000/svg">
<path d="M10.0005 0.169922C3.17059 0.169922 0.609375 6.99982 0.609375 6.99982C0.609375 6.99982 3.17059 13.8297 10.0005 13.8297C16.8304 13.8297 19.3916 6.99982 19.3916 6.99982C19.3916 6.99982 16.8304 0.169922 10.0005 0.169922ZM10.0005 2.73113C12.3577 2.73113 14.2692 4.64265 14.2692 6.99982C14.2692 9.35699 12.3577 11.2685 10.0005 11.2685C7.64332 11.2685 5.7318 9.35699 5.7318 6.99982C5.7318 4.64265 7.64332 2.73113 10.0005 2.73113ZM10.0005 4.43861C8.58597 4.43861 7.43928 5.5853 7.43928 6.99982C7.43928 8.41434 8.58597 9.56103 10.0005 9.56103C11.415 9.56104 12.5617 8.41434 12.5617 6.99982C12.5617 5.5853 11.415 4.43861 10.0005 4.43861Z" fill="#CECECE"/>
</svg>
