<svg width="15" height="15" viewBox="0 0 11 10" fill="none" xmlns="http://www.w3.org/2000/svg">
<path d="M5.70057 4.99577C6.87916 4.99577 7.83469 3.87742 7.83469 2.49787C7.83469 0.584823 6.87919 0 5.70057 0C4.5219 0 3.56647 0.584823 3.56647 2.49787C3.56648 3.87742 4.52193 4.99577 5.70057 4.99577Z" fill="#34495E"/>
<path d="M10.4131 8.67235L9.33644 6.24691C9.28719 6.13593 9.20068 6.04388 9.093 5.98782L7.42204 5.11797C7.3852 5.09882 7.34058 5.10255 7.30745 5.12763C6.83485 5.48508 6.27917 5.67402 5.70056 5.67402C5.12186 5.67402 4.56623 5.48508 4.09363 5.12763C4.06041 5.10255 4.01579 5.09882 3.97894 5.11797L2.3081 5.98782C2.20037 6.04388 2.11395 6.13587 2.06466 6.24691L0.987969 8.67235C0.913738 8.83956 0.928951 9.03088 1.02868 9.18424C1.12836 9.33759 1.29706 9.4291 1.47997 9.4291H9.92108C10.104 9.4291 10.2727 9.33755 10.3724 9.18421C10.4721 9.03088 10.4874 8.8395 10.4131 8.67235Z" fill="#34495E"/>
</svg>
