<svg width="23" height="23" viewBox="0 0 23 23" fill="none" xmlns="http://www.w3.org/2000/svg">
<path d="M18.0013 14.281L20.5266 13.769C21.5537 13.5608 22.2707 12.6835 22.2707 11.6355C22.2707 10.5876 21.5535 9.7103 20.5266 9.50213L18.0013 8.99006C15.9258 8.56926 14.3129 6.95642 13.892 4.88082L13.3799 2.35545C13.1717 1.32838 12.2943 0.611206 11.2466 0.611206C10.1988 0.611206 9.32159 1.32852 9.11328 2.35545L8.60123 4.88082C8.18042 6.95627 6.5675 8.56926 4.49197 8.98992L1.96661 9.50199C0.939575 9.71017 0.222504 10.5874 0.222504 11.6354C0.222504 12.6832 0.939636 13.5605 1.96661 13.7688L4.49197 14.2809C6.5675 14.7017 8.18042 16.3145 8.60123 18.3901L9.11328 20.9155C9.32159 21.9426 10.1989 22.6596 11.2466 22.6596C12.2943 22.6596 13.1717 21.9424 13.3799 20.9155L13.892 18.3901C14.3129 16.3148 15.926 14.7018 18.0013 14.281ZM11.8127 17.9686L11.3006 20.494C11.296 20.5166 11.2906 20.5286 11.2917 20.5286C11.2737 20.5412 11.2198 20.5412 11.205 20.5319C11.2032 20.5293 11.1975 20.5171 11.1929 20.494L10.6808 17.9686C10.0904 15.0559 7.82663 12.7922 4.91391 12.2015L2.38852 11.6895C2.36792 11.6854 2.3562 11.6803 2.35422 11.6803C2.354 11.6803 2.35422 11.68 2.35422 11.6803C2.34137 11.6622 2.34116 11.6085 2.3508 11.5937C2.35339 11.5919 2.36554 11.5862 2.38861 11.5816L4.91406 11.0696C7.8269 10.479 10.0906 8.21534 10.681 5.3026L11.1931 2.77723C11.1983 2.75131 11.2019 2.74239 11.2019 2.74253C11.2201 2.72971 11.2742 2.72985 11.2885 2.73933C11.2905 2.74197 11.2962 2.7541 11.3008 2.77723L11.8128 5.3026C12.4035 8.21534 14.6672 10.4792 17.5797 11.0696L20.1052 11.5816C20.1291 11.5865 20.1395 11.5921 20.1397 11.5905C20.1525 11.6087 20.1525 11.6626 20.1429 11.6774C20.1403 11.6792 20.1281 11.6849 20.105 11.6895L17.5796 12.2015C14.6671 12.7922 12.4035 15.0559 11.8127 17.9686Z" fill="#3B3B3B"/>
</svg>
